<svg version="1.2" xmlns="http://www.w3.org/2000/svg" viewBox="0 0 1280 800" width="1280" height="800">
	<title>template</title>
	<style>
		tspan { white-space:pre } 
		.s0 { fill: #0f4038 } 
		.s1 { fill: #2cbaa4 } 
	</style>
	<path id="Background" class="s0" d="m0 0h1280v800h-1280z"/>
	<g id="Border-top">
		<g id="branch">
			<path id="Layer" fill-rule="evenodd" class="s1" d="m96.9-9.4c0 0 3.4 1.3 4 1.3 0 0-29.6 22.9-43 58.6-15.5 41.7 4.7 79.4-11.5 109.7l-3.3-1.4c16.8-41.7-7.4-60.5 10.7-110.3 12.8-35.7 43.1-57.9 43.1-57.9zm84.1 53.8c-16.8 38.4-40.3 36.4-53.8 70l-2.7-1.3c7.4-26.3 39.7-37.1 53.2-70 12.1-27.6 8-56.6 8-56.6 0 0 3.4 1.4 2.7 1.4 0 0 5.4 28.9-7.4 56.5zm107.7-47.8l3.4 0.7c0.7 0-19.5 21.5-25.6 51.2-6.7 35 12.8 61.9 4 88.1l-2.6-0.7c8-34.9-12.8-47.1-4.8-88.8 5.4-29.6 25.6-50.5 25.6-50.5zm57.2-1.3l3.4-3.4c0.7 0 8.7 41.8 39 72.7 35.7 37 84.8 36.3 108.4 68l-3.4 2.7c-35-38.4-65.9-23.6-109-67.3-30.3-31.7-38.4-72.7-38.4-72.7zm150.1-10.1c27.6 32.3 15.5 53.2 39.7 79.4l-2 2c-20.2-18.1-16.8-51.8-39.7-78.7-20.2-22.9-48.5-31-48.5-31 0.7-0.6 2.7-2.7 2.7-2 0 0 28.3 7.4 47.8 30.3zm138.6 65.9c-8.7 41.8-32.3 44.5-38.3 80.1l-3.4-0.6c2-27 31-45.1 38.4-79.5 6-29.6-4.7-57.2-4.7-57.2 0.6 0 3.3 0.7 3.3 0.7 0 0 10.8 26.9 4.7 56.5z"/>
			<path id="Layer" fill-rule="evenodd" class="s1" d="m80.1 4c1.3 6.8-4.1 16.9-25.6 18.2-15.5 0.7-36.3-4-36.3-4 0 0 17.5-14.8 28.9-18.9 15.5-5.4 31.6-2 33 4.7zm3.4 1.4c5.3-4.7 18.1 2.7 27.5 16.8 9.5 14.1 10.1 36.4 10.1 36.4 0 0-18.1-8.1-27.6-18.2-11.4-12.8-16.1-31-10-35zm-31 44.4c2.7 6.1-1.4 15.5-20.2 19.5-14.1 3.4-33.6 1.4-33.6 1.4 0 0 14.1-16.2 23.5-20.9 13.5-6.7 28.3-6.1 30.3 0zm3.4 0.7c4.7-4.7 16.8 0.6 27.6 12.1 10 11.4 13.4 31.6 13.4 31.6 0 0-18.2-5.4-26.9-12.8-12.8-10.7-18.9-25.5-14.1-30.9zm-7.4 51.8c2 4.7 0 13.5-16.2 18.2-12.1 4-28.3 4-28.3 4 0 0 10.8-14.8 18.2-19.5 10.8-7.4 23.6-7.4 26.3-2.7zm2.6 0.7c3.4-4.7 14.9-1.4 24.3 8 9.4 8.8 14.1 25.6 14.1 25.6 0 0-15.5-2.7-24.2-8.7-11.5-8.1-18.2-20.2-14.2-24.9zm-2 35.6c1.4 4.7-1.3 12.2-16.1 14.8-10.1 2.7-24.9 1.4-24.9 1.4 0 0 10.7-12.1 18.1-16.2 9.5-4.7 20.9-4 22.9 0zm2 0.7c3.4-3.4 12.8 0 20.9 8.8 7.4 8.7 10.1 23.5 10.1 23.5 0 0-13.5-3.4-20.2-9.4-9.4-7.4-14.1-18.9-10.8-22.9zm-4 16.8c5.4 2.7 4 13.5-2.7 24.9-6.7 11.5-22.2 18.9-22.2 18.9 0 0 0-15.5 4-24.9 4.8-12.8 15.5-21.6 20.9-18.9zm165.6-139.9c4.7 8 6 26.2 6 26.2 0 0-14.1-7.4-22.9-16.2-11.4-12.1-8.7-20.8-4-24.2 4-3.3 15.5 2.7 20.9 14.2zm-48.5 0.6c-10.8 1.4-26.2-3.3-26.2-3.3 0 0 12.8-12.8 26.2-16.9 12.8-3.3 24.2-1.3 24.9 4.1 1.4 6-11.4 14.1-24.9 16.1zm35 42.4c2.7 8.1 2 24.9 2 24.9 0 0-12.1-8.7-18.1-17.5-8.8-12.8-5.4-20.2-1.4-22.9 4.7-2.6 13.5 4.8 17.5 15.5zm-44.4-5.4c-9.4 0-22.2-6-22.2-6 0 0 12.8-10.1 24.9-12.1 12.1-1.4 22.2 2 22.2 7.4 0 5.4-12.1 10.7-24.9 10.7zm14.1 39.1c2 6.7 0 21.5 0 21.5 0 0-9.4-8.7-14.1-16.8-6.7-11.5-3.4-17.5 0.7-19.5 4-2.1 11.4 4.7 13.4 14.8zm-37-8.1c-8.1-1.3-18.8-7.4-18.8-7.4 0 0 12.1-8.1 22.2-8.1 10.7-0.7 18.8 3.4 18.1 7.4 0 4.7-10.7 8.8-21.5 8.1zm16.2 26.9c2 6.1 1.3 18.9 1.3 18.9 0 0-8.7-6.8-13.5-13.5-6.7-9.4-4-15.5-0.6-17.5 3.3-2 10.1 4 12.8 12.1zm-33-4.7c-7.4 0-17.5-4.7-17.5-4.7 0 0 10.1-7.4 19.5-8.8 8.8-1.3 16.2 1.4 16.2 5.4 0 4.1-8.8 8.8-18.2 8.1zm13.4 26.3c-3.3 8-12.1 17.5-12.1 17.5 0 0-4-12.8-2-22.9 2-10.8 8.1-18.2 12.1-16.9 4.7 0.7 6.1 12.2 2 22.3zm150.8-126.6c1.3 5.4-1.4 14.2-17.5 17.5-12.1 2-28.3 0.7-28.3 0.7 0 0 11.5-14.1 20.2-18.8 10.8-6.1 23.6-4.8 25.6 0.6zm2 0.7c4.1-4.7 14.8 0 23.6 10.8 8.7 10.7 11.4 28.2 11.4 28.2 0 0-14.8-4.7-22.9-11.4-10.7-9.4-16.1-23.6-12.1-27.6zm-18.2 39c2.1 4.7 0.7 13.5-13.4 18.2-10.8 4-25.6 4.7-25.6 4.7 0 0 8.8-14.8 16.2-19.5 9.4-6.7 20.8-7.4 22.8-3.4zm2.7 0.7c2.7-4.7 12.8-1.3 22.2 6.7 8.8 8.1 13.5 24.3 13.5 24.3 0 0-14.1-2.1-22.2-7.4-10.1-7.4-16.8-18.9-13.5-23.6zm0 42.4c2.1 4 1.4 11.4-10.7 16.8-8.1 4.1-20.9 6.1-20.9 6.1 0 0 6.7-12.8 12.1-18.2 7.4-6.7 16.8-8.1 19.5-4.7zm2.1 0.7c2-4.1 10.7-2.7 19.5 4 8 6.1 13.4 19.5 13.4 19.5 0 0-12.1-1.3-19.5-4.7-9.4-5.4-16.1-14.8-13.4-18.8zm2 28.9c2 3.4 0.6 10.1-10.1 14.2-8.1 2.6-18.9 3.3-18.9 3.3 0 0 6.8-10.7 11.5-14.8 7.4-5.4 16.1-6 17.5-2.7zm2 0.7c2.7-3.4 10.1-1.4 16.8 4.7 6.7 6.1 10.8 18.2 10.8 18.2 0 0-10.8-1.4-16.8-5.4-8.1-5.4-12.8-14.1-10.8-17.5zm-1.4 13.5c4.1 2 4.8 10.7 0.7 20.8-4 10.1-14.8 17.5-14.8 17.5 0 0-2-12.8 0-20.8 2.7-10.8 10.1-18.9 14.1-17.5zm78.8-117.8c8.1 2 16.1 12.8 6 35-6.7 16.1-22.2 33.6-22.2 33.6 0 0-6.7-25.5-5.3-39 2-18.2 14.1-32.3 21.5-29.6zm2.7-2.7c-1.4-8.1 12.8-16.8 32.3-18.2 19.5-1.3 43.7 9.4 43.7 9.4 0 0-18.1 14.2-33.6 17.5-19.5 4.7-40.4 0-42.4-8.7zm31.6 54.5c7.4 1.3 16.2 10.1 10.1 31.6-4 15.5-15.5 33.7-15.5 33.7 0 0-9.4-22.9-10.1-35 0-16.8 8.8-31.6 15.5-30.3zm2.7-2c-2.7-7.4 8.8-16.8 26.2-20.9 17.5-4 40.4 3.4 40.4 3.4 0 0-14.1 14.8-27.6 20.2-16.8 6-36.3 4-39-2.7zm50.5 35c6.7 0.6 14.1 7.4 11.4 26.2-2.7 13.5-10.7 29.6-10.7 29.6 0 0-10.1-18.1-11.5-28.9-1.3-14.1 4.7-26.9 10.8-26.9zm2-2c-2.7-6.1 6.7-15.5 20.9-20.2 14.8-4.7 34.3 0 34.3 0 0 0-10.8 14.1-21.6 19.5-14.1 6.7-30.2 6.7-33.6 0.7zm37 21.5c5.4 0.7 11.5 7.4 7.4 23.5-2.7 11.5-11.4 24.9-11.4 24.9 0 0-7.4-16.8-7.4-26.2-0.7-12.1 6-22.9 11.4-22.2zm2-2c-2-5.4 6.8-12.8 19.5-16.2 13.5-2.7 30.3 2.7 30.3 2.7 0 0-10.7 11.5-20.8 14.8-12.8 5.4-27 4.1-29-1.3zm14.8 12.8c5.4-3.4 16.9 3.3 25.6 16.1 8.1 12.8 8.8 32.3 8.8 32.3 0 0-16.9-8.1-24.9-17.5-10.8-11.4-14.8-27.6-9.5-30.9zm-8.7-185.8c9.4 0 26.9 6.1 26.9 6.1 0 0-13.5 9.4-24.9 13.4-15.5 5.4-22.9-0.6-23.5-6-1.4-6.1 9.4-12.8 21.5-13.5zm-20.2 44.4c-3.4 10.1-13.5 22.2-13.5 22.2 0 0-6.7-17.5-4.7-30.2 2.7-13.5 9.4-22.9 14.8-21.6 5.4 2 8.1 16.8 3.4 29.6zm53.8-13.4c8.8 1.3 23.6 8.7 23.6 8.7 0 0-13.5 7.4-24.2 9.4-14.8 2.7-20.2-4-20.9-9.4-0.7-4.7 10.1-10.1 21.5-8.7zm-23.5 37.7c-4.7 8.7-15.5 17.5-15.5 17.5 0 0-4-16.2 0-27.6 3.4-12.1 10.8-19.6 15.5-16.9 5.4 2.1 5.4 15.5 0 27zm41 4c6.8 1.3 18.9 9.4 18.9 9.4 0 0-11.5 4.7-20.9 5.4-13.4 1.3-17.5-4.7-17.5-8.7 0-4.8 9.4-8.1 19.5-6.1zm-23.5 30.3c-4.7 6.7-14.8 13.4-14.8 13.4 0 0-2-14.1 2-23.5 4-9.4 11.4-15.5 14.8-12.8 4 2 3.4 13.5-2 22.9zm30.9-3.4c6.8 0.7 17.5 6.7 17.5 6.7 0 0-9.4 5.4-17.5 6.8-11.4 2-15.4-2.7-16.1-6.8 0-4 8.1-7.4 16.1-6.7zm-18.1 28.3c-2.7 6.7-11.5 13.4-11.5 13.4 0 0-2.7-12.1 0-20.8 2.7-8.8 8.8-14.8 12.1-12.8 3.4 1.3 4.1 11.4-0.6 20.2zm29.6-0.7c6 6.1 10.7 17.5 10.7 17.5 0 0-13.4-1.3-21.5-7.4-8.7-6.7-12.8-14.8-10.1-18.8 2.7-3.4 13.5 0.6 20.9 8.7zm105.6-55.2c6.1 7.4 11.5 24.9 11.5 24.9 0 0-15.5-4.7-25.6-11.4-14.1-9.4-13.5-18.2-9.4-22.9 3.4-4 15.5 0 23.5 9.4zm-47.7 11.5c-10.1 3.3-25.6 2-25.6 2 0 0 9.4-15.5 21.5-21.6 12.1-6.7 23.6-6.7 25.6-1.3 2 5.4-8.1 16.2-21.5 20.9zm43.7 34.3c4 7.4 6.7 23.5 6.7 23.5 0 0-13.4-6-21.5-13.4-11.4-10.1-9.4-18.9-5.4-22.2 3.4-3.4 14.1 2 20.2 12.1zm-44.4 4c-9.4 1.4-23.6-2-23.6-2 0 0 10.8-12.8 22.2-16.8 11.5-4.1 21.6-2.7 22.9 2.7 1.4 4.7-9.4 13.4-21.5 16.1zm21.5 35c2.7 6.1 4.1 20.9 4.1 20.9 0 0-10.8-6.7-17.5-13.5-8.8-10.1-6.1-16.8-2.7-19.5 3.3-2.7 11.4 2.7 16.1 12.1zm-38.3-0.7c-8.1 0.7-19.6-3.3-19.6-3.3 0 0 10.1-10.1 20.2-12.1 10.1-2.7 18.9-1.4 19.5 3.3 0 4.7-9.4 10.8-20.1 12.1zm21.5 22.9c3.4 6.1 5.4 18.2 5.4 18.2 0 0-10.1-4.7-16.2-10.1-8-8.1-7.4-14.1-4-16.8 2.7-2.7 10.8 1.3 14.8 8.7zm-33.7 2.7c-6.7 1.4-17.5-0.6-17.5-0.6 0 0 8.1-10.1 16.9-12.8 8.7-3.4 16.8-2.1 17.5 1.3 0.6 4-7.4 10.8-16.9 12.1zm18.9 22.9c-1.4 8.1-8.1 19.5-8.1 19.5 0 0-6.7-11.4-6.7-22.2 0-10.8 4-18.8 8.7-18.8 4.1 0 8.1 10.7 6.1 21.5z"/>
		</g>
		<g id="branch">
			<path id="Layer" fill-rule="evenodd" class="s1" d="m769-9.4c0 0 3.3 1.3 4 1.3 0 0-29.6 22.9-43.1 58.6-15.4 41.7 4.7 79.4-11.4 109.7l-3.4-1.4c16.9-41.7-7.4-60.5 10.8-110.3 12.8-35.7 43.1-57.9 43.1-57.9zm84.1 53.8c-16.8 38.4-40.4 36.4-53.8 70l-2.7-1.3c7.4-26.3 39.7-37.1 53.1-70 12.1-27.6 8.1-56.6 8.1-56.6 0 0 3.4 1.4 2.7 1.4 0 0 5.4 28.9-7.4 56.5zm107.7-47.8l3.3 0.7c0.7 0-19.5 21.5-25.5 51.2-6.8 35 12.7 61.9 4 88.1l-2.7-0.7c8.1-34.9-12.8-47.1-4.7-88.8 5.4-29.6 25.6-50.5 25.6-50.5zm57.2-1.3l3.3-3.4c0.7 0 8.8 41.8 39.1 72.7 35.6 37 84.8 36.3 108.3 68l-3.3 2.7c-35-38.4-66-23.6-109.1-67.3-30.2-31.7-38.3-72.7-38.3-72.7zm150.1-10.1c27.5 32.3 15.4 53.2 39.7 79.4l-2.1 2c-20.1-18.1-16.8-51.8-39.7-78.7-20.2-22.9-48.4-31-48.4-31 0.7-0.6 2.7-2.7 2.7-2 0 0 28.2 7.4 47.8 30.3zm138.6 65.9c-8.8 41.8-32.3 44.5-38.4 80.1l-3.3-0.6c2-27 30.9-45.1 38.3-79.5 6.1-29.6-4.7-57.2-4.7-57.2 0.7 0 3.4 0.7 3.4 0.7 0 0 10.8 26.9 4.7 56.5z"/>
			<path id="Layer" fill-rule="evenodd" class="s1" d="m752.1 4c1.4 6.8-4 16.9-25.5 18.2-15.5 0.7-36.4-4-36.4-4 0 0 17.5-14.8 29-18.9 15.4-5.4 31.6-2 32.9 4.7zm3.4 1.4c5.4-4.7 18.2 2.7 27.6 16.8 9.4 14.1 10.1 36.4 10.1 36.4 0 0-18.2-8.1-27.6-18.2-11.4-12.8-16.2-31-10.1-35zm-31 44.4c2.7 6.1-1.3 15.5-20.1 19.5-14.2 3.4-33.7 1.4-33.7 1.4 0 0 14.1-16.2 23.6-20.9 13.4-6.7 28.2-6.1 30.2 0zm3.4 0.7c4.7-4.7 16.8 0.6 27.6 12.1 10.1 11.4 13.5 31.6 13.5 31.6 0 0-18.2-5.4-27-12.8-12.7-10.7-18.8-25.5-14.1-30.9zm-7.4 51.8c2 4.7 0 13.5-16.1 18.2-12.2 4-28.3 4-28.3 4 0 0 10.8-14.8 18.2-19.5 10.7-7.4 23.5-7.4 26.2-2.7zm2.7 0.7c3.4-4.7 14.8-1.4 24.2 8 9.5 8.8 14.2 25.6 14.2 25.6 0 0-15.5-2.7-24.3-8.7-11.4-8.1-18.1-20.2-14.1-24.9zm-2 35.6c1.3 4.7-1.4 12.2-16.2 14.8-10.1 2.7-24.9 1.4-24.9 1.4 0 0 10.8-12.1 18.2-16.2 9.4-4.7 20.9-4 22.9 0zm2 0.7c3.4-3.4 12.8 0 20.9 8.8 7.4 8.7 10.1 23.5 10.1 23.5 0 0-13.5-3.4-20.2-9.4-9.5-7.4-14.2-18.9-10.8-22.9zm-4 16.8c5.3 2.7 4 13.5-2.7 24.9-6.8 11.5-22.2 18.9-22.2 18.9 0 0 0-15.5 4-24.9 4.7-12.8 15.5-21.6 20.9-18.9zm165.5-139.9c4.7 8 6.1 26.2 6.1 26.2 0 0-14.2-7.4-22.9-16.2-11.4-12.1-8.8-20.8-4-24.2 4-3.3 15.4 2.7 20.8 14.2zm-48.4 0.6c-10.8 1.4-26.3-3.3-26.3-3.3 0 0 12.8-12.8 26.3-16.9 12.8-3.3 24.2-1.3 24.9 4.1 1.3 6-11.5 14.1-24.9 16.1zm35 42.4c2.7 8.1 2 24.9 2 24.9 0 0-12.1-8.7-18.2-17.5-8.7-12.8-5.4-20.2-1.3-22.9 4.7-2.6 13.4 4.8 17.5 15.5zm-44.5-5.4c-9.4 0-22.2-6-22.2-6 0 0 12.8-10.1 24.9-12.1 12.1-1.4 22.2 2 22.2 7.4 0 5.4-12.1 10.7-24.9 10.7zm14.2 39.1c2 6.7 0 21.5 0 21.5 0 0-9.4-8.7-14.2-16.8-6.7-11.5-3.3-17.5 0.7-19.5 4.1-2.1 11.5 4.7 13.5 14.8zm-37-8.1c-8.1-1.3-18.9-7.4-18.9-7.4 0 0 12.1-8.1 22.2-8.1 10.8-0.7 18.9 3.4 18.2 7.4 0 4.7-10.8 8.8-21.5 8.1zm16.1 26.9c2 6.1 1.4 18.9 1.4 18.9 0 0-8.8-6.8-13.5-13.5-6.7-9.4-4-15.5-0.7-17.5 3.4-2 10.1 4 12.8 12.1zm-33-4.7c-7.4 0-17.5-4.7-17.5-4.7 0 0 10.1-7.4 19.6-8.8 8.7-1.3 16.1 1.4 16.1 5.4 0 4.1-8.7 8.8-18.2 8.1zm13.5 26.3c-3.4 8-12.1 17.5-12.1 17.5 0 0-4.1-12.8-2-22.9 2-10.8 8-18.2 12.1-16.9 4.7 0.7 6 12.2 2 22.3zm150.7-126.6c1.4 5.4-1.3 14.2-17.4 17.5-12.2 2-28.3 0.7-28.3 0.7 0 0 11.4-14.1 20.2-18.8 10.7-6.1 23.5-4.8 25.5 0.6zm2.1 0.7c4-4.7 14.8 0 23.5 10.8 8.8 10.7 11.5 28.2 11.5 28.2 0 0-14.8-4.7-22.9-11.4-10.8-9.4-16.2-23.6-12.1-27.6zm-18.2 39c2 4.7 0.7 13.5-13.5 18.2-10.7 4-25.5 4.7-25.5 4.7 0 0 8.7-14.8 16.1-19.5 9.4-6.7 20.9-7.4 22.9-3.4zm2.7 0.7c2.7-4.7 12.8-1.3 22.2 6.7 8.7 8.1 13.5 24.3 13.5 24.3 0 0-14.2-2.1-22.3-7.4-10-7.4-16.8-18.9-13.4-23.6zm0 42.4c2 4 1.3 11.4-10.8 16.8-8.1 4.1-20.8 6.1-20.8 6.1 0 0 6.7-12.8 12.1-18.2 7.4-6.7 16.8-8.1 19.5-4.7zm2 0.7c2-4.1 10.8-2.7 19.5 4 8.1 6.1 13.5 19.5 13.5 19.5 0 0-12.1-1.3-19.5-4.7-9.5-5.4-16.2-14.8-13.5-18.8zm2 28.9c2 3.4 0.7 10.1-10.1 14.2-8 2.6-18.8 3.3-18.8 3.3 0 0 6.7-10.7 11.4-14.8 7.4-5.4 16.2-6 17.5-2.7zm2 0.7c2.7-3.4 10.1-1.4 16.9 4.7 6.7 6.1 10.7 18.2 10.7 18.2 0 0-10.7-1.4-16.8-5.4-8.1-5.4-12.8-14.1-10.8-17.5zm-1.3 13.5c4 2 4.7 10.7 0.7 20.8-4.1 10.1-14.8 17.5-14.8 17.5 0 0-2.1-12.8 0-20.8 2.7-10.8 10.1-18.9 14.1-17.5zm78.7-117.8c8.1 2 16.2 12.8 6.1 35-6.7 16.1-22.2 33.6-22.2 33.6 0 0-6.7-25.5-5.4-39 2-18.2 14.1-32.3 21.5-29.6zm2.7-2.7c-1.3-8.1 12.8-16.8 32.3-18.2 19.6-1.3 43.8 9.4 43.8 9.4 0 0-18.2 14.2-33.7 17.5-19.5 4.7-40.3 0-42.4-8.7zm31.7 54.5c7.4 1.3 16.1 10.1 10.1 31.6-4.1 15.5-15.5 33.7-15.5 33.7 0 0-9.4-22.9-10.1-35 0-16.8 8.7-31.6 15.5-30.3zm2.7-2c-2.7-7.4 8.7-16.8 26.2-20.9 17.5-4 40.4 3.4 40.4 3.4 0 0-14.2 14.8-27.6 20.2-16.8 6-36.4 4-39-2.7zm50.4 35c6.8 0.6 14.2 7.4 11.5 26.2-2.7 13.5-10.8 29.6-10.8 29.6 0 0-10.1-18.1-11.4-28.9-1.4-14.1 4.7-26.9 10.7-26.9zm2-2c-2.6-6.1 6.8-15.5 20.9-20.2 14.8-4.7 34.3 0 34.3 0 0 0-10.7 14.1-21.5 19.5-14.1 6.7-30.3 6.7-33.7 0.7zm37.1 21.5c5.3 0.7 11.4 7.4 7.4 23.5-2.7 11.5-11.5 24.9-11.5 24.9 0 0-7.4-16.8-7.4-26.2-0.6-12.1 6.1-22.9 11.5-22.2zm2-2c-2-5.4 6.7-12.8 19.5-16.2 13.5-2.7 30.3 2.7 30.3 2.7 0 0-10.8 11.5-20.9 14.8-12.8 5.4-26.9 4.1-28.9-1.3zm14.8 12.8c5.4-3.4 16.8 3.3 25.6 16.1 8 12.8 8.7 32.3 8.7 32.3 0 0-16.8-8.1-24.9-17.5-10.8-11.4-14.8-27.6-9.4-30.9zm-8.8-185.8c9.5 0 27 6.1 27 6.1 0 0-13.5 9.4-24.9 13.4-15.5 5.4-22.9-0.6-23.6-6-1.3-6.1 9.4-12.8 21.5-13.5zm-20.1 44.4c-3.4 10.1-13.5 22.2-13.5 22.2 0 0-6.7-17.5-4.7-30.2 2.7-13.5 9.4-22.9 14.8-21.6 5.4 2 8.1 16.8 3.4 29.6zm53.8-13.4c8.7 1.3 23.5 8.7 23.5 8.7 0 0-13.4 7.4-24.2 9.4-14.8 2.7-20.2-4-20.8-9.4-0.7-4.7 10.1-10.1 21.5-8.7zm-23.6 37.7c-4.7 8.7-15.4 17.5-15.4 17.5 0 0-4.1-16.2 0-27.6 3.3-12.1 10.7-19.6 15.4-16.9 5.4 2.1 5.4 15.5 0 27zm41.1 4c6.7 1.3 18.8 9.4 18.8 9.4 0 0-11.4 4.7-20.8 5.4-13.5 1.3-17.5-4.7-17.5-8.7 0-4.8 9.4-8.1 19.5-6.1zm-23.6 30.3c-4.7 6.7-14.8 13.4-14.8 13.4 0 0-2-14.1 2-23.5 4.1-9.4 11.5-15.5 14.9-12.8 4 2 3.3 13.5-2.1 22.9zm31-3.4c6.7 0.7 17.5 6.7 17.5 6.7 0 0-9.4 5.4-17.5 6.8-11.4 2-15.5-2.7-16.2-6.8 0-4 8.1-7.4 16.2-6.7zm-18.2 28.3c-2.7 6.7-11.4 13.4-11.4 13.4 0 0-2.7-12.1 0-20.8 2.7-8.8 8.7-14.8 12.1-12.8 3.4 1.3 4 11.4-0.7 20.2zm29.6-0.7c6.1 6.1 10.8 17.5 10.8 17.5 0 0-13.5-1.3-21.5-7.4-8.8-6.7-12.8-14.8-10.1-18.8 2.7-3.4 13.4 0.6 20.8 8.7zm105.7-55.2c6.1 7.4 11.4 24.9 11.4 24.9 0 0-15.4-4.7-25.5-11.4-14.2-9.4-13.5-18.2-9.5-22.9 3.4-4 15.5 0 23.6 9.4zm-47.8 11.5c-10.1 3.3-25.6 2-25.6 2 0 0 9.5-15.5 21.6-21.6 12.1-6.7 23.5-6.7 25.5-1.3 2.1 5.4-8 16.2-21.5 20.9zm43.8 34.3c4 7.4 6.7 23.5 6.7 23.5 0 0-13.5-6-21.5-13.4-11.5-10.1-9.5-18.9-5.4-22.2 3.3-3.4 14.1 2 20.2 12.1zm-44.5 4c-9.4 1.4-23.5-2-23.5-2 0 0 10.8-12.8 22.2-16.8 11.4-4.1 21.5-2.7 22.9 2.7 1.3 4.7-9.4 13.4-21.6 16.1zm21.6 35c2.7 6.1 4 20.9 4 20.9 0 0-10.8-6.7-17.5-13.5-8.7-10.1-6-16.8-2.7-19.5 3.4-2.7 11.5 2.7 16.2 12.1zm-38.4-0.7c-8.1 0.7-19.5-3.3-19.5-3.3 0 0 10.1-10.1 20.2-12.1 10.1-2.7 18.8-1.4 19.5 3.3 0 4.7-9.4 10.8-20.2 12.1zm21.5 22.9c3.4 6.1 5.4 18.2 5.4 18.2 0 0-10.1-4.7-16.1-10.1-8.1-8.1-7.4-14.1-4.1-16.8 2.7-2.7 10.8 1.3 14.8 8.7zm-33.6 2.7c-6.7 1.4-17.5-0.6-17.5-0.6 0 0 8.1-10.1 16.8-12.8 8.8-3.4 16.9-2.1 17.5 1.3 0.7 4-7.4 10.8-16.8 12.1zm18.8 22.9c-1.3 8.1-8 19.5-8 19.5 0 0-6.8-11.4-6.8-22.2 0-10.8 4.1-18.8 8.8-18.8 4 0 8.1 10.7 6 21.5z"/>
		</g>
	</g>
	<g id="Border-bottom">
		<g id="branch">
			<path id="Layer" fill-rule="evenodd" class="s1" d="m1183.1 809.4c0 0-3.4-1.3-4-1.3 0 0 29.6-22.9 43-58.6 15.5-41.7-4.7-79.4 11.5-109.7l3.3 1.4c-16.8 41.7 7.4 60.5-10.7 110.3-12.8 35.7-43.1 57.9-43.1 57.9zm-84.1-53.8c16.8-38.4 40.3-36.4 53.8-70l2.7 1.3c-7.4 26.3-39.7 37.1-53.2 70-12.1 27.6-8 56.6-8 56.6 0 0-3.4-1.4-2.7-1.4 0 0-5.4-28.9 7.4-56.5zm-107.7 47.8l-3.4-0.7c-0.7 0 19.5-21.5 25.6-51.2 6.7-35-12.8-61.9-4-88.1l2.6 0.7c-8 34.9 12.8 47.1 4.8 88.8-5.4 29.6-25.6 50.5-25.6 50.5zm-57.2 1.3l-3.4 3.4c-0.7 0-8.7-41.7-39-72.7-35.7-37-84.8-36.4-108.4-68l3.4-2.7c35 38.4 65.9 23.6 109 67.3 30.3 31.7 38.4 72.7 38.4 72.7zm-150.1 10.1c-27.6-32.3-15.5-53.2-39.7-79.4l2-2c20.2 18.1 16.8 51.8 39.7 78.7 20.2 22.9 48.5 31 48.5 31-0.7 0.6-2.7 2.7-2.7 2 0 0-28.3-7.4-47.8-30.3zm-138.6-65.9c8.7-41.8 32.3-44.5 38.3-80.1l3.4 0.6c-2 27-31 45.1-38.4 79.5-6 29.6 4.7 57.2 4.7 57.2-0.6 0-3.3-0.7-3.3-0.7 0 0-10.8-26.9-4.7-56.5z"/>
			<path id="Layer" fill-rule="evenodd" class="s1" d="m1199.9 796c-1.3-6.8 4.1-16.9 25.6-18.2 15.5-0.7 36.3 4 36.3 4 0 0-17.5 14.8-28.9 18.9-15.5 5.4-31.6 2-33-4.7zm-3.4-1.4c-5.3 4.7-18.1-2.7-27.5-16.8-9.5-14.1-10.1-36.4-10.1-36.4 0 0 18.1 8.1 27.6 18.2 11.4 12.8 16.1 31 10 35zm31-44.4c-2.7-6.1 1.4-15.5 20.2-19.5 14.1-3.4 33.6-1.4 33.6-1.4 0 0-14.1 16.2-23.5 20.9-13.5 6.7-28.3 6.1-30.3 0zm-3.4-0.7c-4.7 4.7-16.8-0.6-27.6-12.1-10-11.4-13.4-31.6-13.4-31.6 0 0 18.2 5.4 26.9 12.8 12.8 10.7 18.9 25.5 14.1 30.9zm7.4-51.8c-2-4.7 0-13.5 16.2-18.2 12.1-4 28.3-4 28.3-4 0 0-10.8 14.8-18.2 19.5-10.8 7.4-23.6 7.4-26.3 2.7zm-2.6-0.7c-3.4 4.7-14.9 1.4-24.3-8-9.4-8.8-14.1-25.6-14.1-25.6 0 0 15.5 2.7 24.2 8.7 11.5 8.1 18.2 20.2 14.2 24.9zm2-35.6c-1.4-4.7 1.3-12.2 16.1-14.8 10.1-2.7 24.9-1.4 24.9-1.4 0 0-10.7 12.1-18.1 16.2-9.5 4.7-20.9 4-22.9 0zm-2-0.7c-3.4 3.4-12.8 0-20.9-8.8-7.4-8.7-10.1-23.5-10.1-23.5 0 0 13.5 3.4 20.2 9.4 9.4 7.4 14.1 18.9 10.8 22.9zm4-16.8c-5.4-2.7-4-13.5 2.7-24.9 6.7-11.5 22.2-18.9 22.2-18.9 0 0 0 15.5-4 24.9-4.8 12.8-15.5 21.6-20.9 18.9zm-165.6 139.9c-4.7-8-6-26.2-6-26.2 0 0 14.1 7.4 22.9 16.2 11.4 12.1 8.7 20.8 4 24.2-4 3.3-15.5-2.7-20.9-14.2zm48.5-0.6c10.8-1.4 26.2 3.3 26.2 3.3 0 0-12.8 12.8-26.2 16.9-12.8 3.3-24.2 1.3-24.9-4.1-1.4-6 11.4-14.1 24.9-16.1zm-35-42.4c-2.7-8.1-2-24.9-2-24.9 0 0 12.1 8.7 18.1 17.5 8.8 12.8 5.4 20.2 1.4 22.9-4.7 2.6-13.5-4.8-17.5-15.5zm44.4 5.4c9.4 0 22.2 6 22.2 6 0 0-12.8 10.1-24.9 12.1-12.1 1.4-22.2-2-22.2-7.4 0-5.4 12.1-10.7 24.9-10.7zm-14.1-39.1c-2-6.7 0-21.5 0-21.5 0 0 9.4 8.7 14.1 16.8 6.7 11.5 3.4 17.5-0.7 19.5-4 2.1-11.4-4.7-13.4-14.8zm37 8.1c8.1 1.3 18.8 7.4 18.8 7.4 0 0-12.1 8.1-22.2 8.1-10.7 0.7-18.8-3.4-18.1-7.4 0-4.7 10.7-8.8 21.5-8.1zm-16.2-26.9c-2-6.1-1.3-18.9-1.3-18.9 0 0 8.7 6.8 13.5 13.5 6.7 9.4 4 15.5 0.6 17.5-3.3 2-10.1-4-12.8-12.1zm33 4.7c7.4 0 17.5 4.7 17.5 4.7 0 0-10.1 7.4-19.5 8.8-8.8 1.3-16.2-1.4-16.2-5.4 0-4.1 8.8-8.8 18.2-8.1zm-13.4-26.3c3.3-8 12.1-17.5 12.1-17.5 0 0 4 12.8 2 22.9-2 10.8-8.1 18.2-12.1 16.9-4.7-0.7-6.1-12.2-2-22.3zm-150.8 126.6c-1.3-5.4 1.4-14.2 17.5-17.5 12.1-2 28.3-0.7 28.3-0.7 0 0-11.5 14.1-20.2 18.8-10.8 6.1-23.6 4.8-25.6-0.6zm-2-0.7c-4.1 4.7-14.8 0-23.6-10.8-8.7-10.7-11.4-28.2-11.4-28.2 0 0 14.8 4.7 22.9 11.4 10.7 9.4 16.1 23.6 12.1 27.6zm18.2-39c-2.1-4.7-0.7-13.5 13.4-18.2 10.8-4 25.6-4.7 25.6-4.7 0 0-8.8 14.8-16.2 19.5-9.4 6.7-20.8 7.4-22.8 3.4zm-2.7-0.7c-2.7 4.7-12.8 1.3-22.2-6.7-8.8-8.1-13.5-24.3-13.5-24.3 0 0 14.1 2.1 22.2 7.4 10.1 7.4 16.8 18.9 13.5 23.6zm0-42.4c-2.1-4-1.4-11.5 10.7-16.8 8.1-4.1 20.9-6.1 20.9-6.1 0 0-6.7 12.8-12.1 18.2-7.4 6.7-16.8 8.1-19.5 4.7zm-2.1-0.7c-2 4.1-10.7 2.7-19.5-4-8-6.1-13.4-19.5-13.4-19.5 0 0 12.1 1.3 19.5 4.7 9.4 5.4 16.1 14.8 13.4 18.8zm-2-28.9c-2-3.4-0.6-10.1 10.1-14.2 8.1-2.6 18.9-3.3 18.9-3.3 0 0-6.8 10.7-11.5 14.8-7.4 5.4-16.1 6-17.5 2.7zm-2-0.7c-2.7 3.4-10.1 1.4-16.8-4.7-6.7-6.1-10.8-18.2-10.8-18.2 0 0 10.8 1.4 16.8 5.4 8.1 5.4 12.8 14.1 10.8 17.5zm1.4-13.5c-4.1-2-4.8-10.7-0.7-20.8 4-10.1 14.8-17.5 14.8-17.5 0 0 2 12.8 0 20.8-2.7 10.8-10.1 18.9-14.1 17.5zm-78.8 117.8c-8.1-2-16.1-12.8-6-35 6.7-16.1 22.2-33.6 22.2-33.6 0 0 6.7 25.5 5.3 39-2 18.2-14.1 32.3-21.5 29.6zm-2.7 2.7c1.4 8.1-12.8 16.8-32.3 18.2-19.5 1.3-43.7-9.4-43.7-9.4 0 0 18.1-14.2 33.6-17.5 19.5-4.7 40.4 0 42.4 8.7zm-31.6-54.5c-7.4-1.3-16.2-10.1-10.1-31.6 4-15.5 15.5-33.7 15.5-33.7 0 0 9.4 22.9 10.1 35 0 16.8-8.8 31.6-15.5 30.3zm-2.7 2c2.7 7.4-8.8 16.8-26.2 20.9-17.5 4-40.4-3.4-40.4-3.4 0 0 14.1-14.8 27.6-20.2 16.8-6 36.3-4 39 2.7zm-50.5-35c-6.7-0.7-14.1-7.4-11.4-26.2 2.7-13.5 10.7-29.6 10.7-29.6 0 0 10.1 18.1 11.5 28.9 1.3 14.1-4.7 26.9-10.8 26.9zm-2 2c2.7 6.1-6.7 15.5-20.9 20.2-14.8 4.7-34.3 0-34.3 0 0 0 10.8-14.1 21.6-19.5 14.1-6.7 30.2-6.7 33.6-0.7zm-37-21.5c-5.4-0.7-11.5-7.4-7.4-23.5 2.7-11.5 11.4-24.9 11.4-24.9 0 0 7.4 16.8 7.4 26.2 0.7 12.1-6 22.9-11.4 22.2zm-2 2c2 5.4-6.8 12.8-19.5 16.2-13.5 2.7-30.3-2.7-30.3-2.7 0 0 10.7-11.5 20.8-14.8 12.8-5.4 27-4.1 29 1.3zm-14.8-12.8c-5.4 3.4-16.9-3.3-25.6-16.1-8.1-12.8-8.8-32.3-8.8-32.3 0 0 16.9 8.1 24.9 17.5 10.8 11.4 14.8 27.6 9.5 30.9zm8.7 185.8c-9.4 0-26.9-6.1-26.9-6.1 0 0 13.5-9.4 24.9-13.4 15.5-5.4 22.9 0.6 23.5 6 1.4 6.1-9.4 12.8-21.5 13.5zm20.2-44.4c3.4-10.1 13.5-22.2 13.5-22.2 0 0 6.7 17.5 4.7 30.2-2.7 13.5-9.4 22.9-14.8 21.6-5.4-2-8.1-16.8-3.4-29.6zm-53.8 13.4c-8.8-1.3-23.6-8.7-23.6-8.7 0 0 13.5-7.4 24.2-9.4 14.8-2.7 20.2 4 20.9 9.4 0.7 4.7-10.1 10.1-21.5 8.7zm23.5-37.7c4.7-8.7 15.5-17.5 15.5-17.5 0 0 4 16.2 0 27.6-3.4 12.1-10.8 19.6-15.5 16.9-5.4-2.1-5.4-15.5 0-27zm-41-4c-6.8-1.3-18.9-9.4-18.9-9.4 0 0 11.5-4.7 20.9-5.4 13.4-1.3 17.5 4.7 17.5 8.7 0 4.8-9.4 8.1-19.5 6.1zm23.5-30.3c4.7-6.7 14.8-13.4 14.8-13.4 0 0 2 14.1-2 23.5-4 9.4-11.4 15.5-14.8 12.8-4-2-3.4-13.5 2-22.9zm-30.9 3.4c-6.8-0.7-17.5-6.7-17.5-6.7 0 0 9.4-5.4 17.5-6.8 11.4-2 15.4 2.7 16.1 6.8 0 4-8.1 7.4-16.1 6.7zm18.1-28.3c2.7-6.7 11.5-13.4 11.5-13.4 0 0 2.7 12.1 0 20.8-2.7 8.8-8.8 14.8-12.1 12.8-3.4-1.3-4.1-11.4 0.6-20.2zm-29.6 0.7c-6-6.1-10.7-17.5-10.7-17.5 0 0 13.4 1.3 21.5 7.4 8.7 6.7 12.8 14.8 10.1 18.8-2.7 3.4-13.5-0.6-20.9-8.7zm-105.6 55.2c-6.1-7.4-11.5-24.9-11.5-24.9 0 0 15.5 4.7 25.6 11.4 14.1 9.4 13.5 18.2 9.4 22.9-3.4 4-15.5 0-23.5-9.4zm47.7-11.5c10.1-3.3 25.6-2 25.6-2 0 0-9.4 15.5-21.5 21.6-12.1 6.7-23.6 6.7-25.6 1.3-2-5.4 8.1-16.2 21.5-20.9zm-43.7-34.3c-4-7.4-6.7-23.5-6.7-23.5 0 0 13.4 6 21.5 13.4 11.4 10.1 9.4 18.9 5.4 22.2-3.4 3.4-14.1-2-20.2-12.1zm44.4-4c9.4-1.4 23.6 2 23.6 2 0 0-10.8 12.8-22.2 16.8-11.5 4.1-21.6 2.7-22.9-2.7-1.4-4.7 9.4-13.4 21.5-16.1zm-21.5-35c-2.7-6.1-4.1-20.9-4.1-20.9 0 0 10.8 6.7 17.5 13.5 8.8 10.1 6.1 16.8 2.7 19.5-3.3 2.7-11.4-2.7-16.1-12.1zm38.3 0.6c8.1-0.6 19.6 3.4 19.6 3.4 0 0-10.1 10.1-20.2 12.1-10.1 2.7-18.9 1.4-19.5-3.3 0-4.7 9.4-10.8 20.1-12.2zm-21.5-22.8c-3.4-6.1-5.4-18.2-5.4-18.2 0 0 10.1 4.7 16.2 10.1 8 8.1 7.4 14.1 4 16.8-2.7 2.7-10.8-1.3-14.8-8.7zm33.7-2.7c6.7-1.4 17.5 0.6 17.5 0.6 0 0-8.1 10.1-16.9 12.8-8.7 3.4-16.8 2.1-17.5-1.3-0.6-4 7.4-10.8 16.9-12.1zm-18.9-22.9c1.4-8.1 8.1-19.5 8.1-19.5 0 0 6.7 11.4 6.7 22.2 0 10.8-4 18.8-8.7 18.8-4.1 0-8.1-10.7-6.1-21.5z"/>
		</g>
		<g id="branch">
			<path id="Layer" fill-rule="evenodd" class="s1" d="m511 809.4c0 0-3.3-1.3-4-1.3 0 0 29.6-22.9 43.1-58.6 15.4-41.7-4.7-79.4 11.4-109.7l3.4 1.4c-16.9 41.7 7.4 60.5-10.8 110.3-12.8 35.7-43.1 57.9-43.1 57.9zm-84.1-53.8c16.8-38.4 40.4-36.4 53.8-70l2.7 1.3c-7.4 26.3-39.7 37.1-53.1 70-12.1 27.6-8.1 56.6-8.1 56.6 0 0-3.4-1.4-2.7-1.4 0 0-5.4-28.9 7.4-56.5zm-107.7 47.8l-3.3-0.7c-0.7 0 19.5-21.5 25.5-51.2 6.8-35-12.7-61.9-4-88.1l2.7 0.7c-8.1 34.9 12.8 47.1 4.7 88.8-5.4 29.6-25.6 50.5-25.6 50.5zm-57.2 1.3l-3.3 3.4c-0.7 0-8.8-41.7-39.1-72.7-35.6-37-84.8-36.4-108.3-68l3.3-2.7c35 38.4 66 23.6 109.1 67.3 30.2 31.7 38.3 72.7 38.3 72.7zm-150.1 10.1c-27.5-32.3-15.4-53.2-39.7-79.4l2.1-2c20.1 18.1 16.8 51.8 39.7 78.7 20.2 22.9 48.4 31 48.4 31-0.7 0.6-2.7 2.7-2.7 2 0 0-28.2-7.4-47.8-30.3zm-138.6-65.9c8.8-41.8 32.3-44.5 38.4-80.1l3.3 0.6c-2 27-30.9 45.1-38.3 79.5-6.1 29.6 4.7 57.2 4.7 57.2-0.7 0-3.4-0.7-3.4-0.7 0 0-10.8-26.9-4.7-56.5z"/>
			<path id="Layer" fill-rule="evenodd" class="s1" d="m527.9 796c-1.4-6.8 4-16.9 25.5-18.2 15.5-0.7 36.4 4 36.4 4 0 0-17.5 14.8-29 18.9-15.4 5.4-31.6 2-32.9-4.7zm-3.4-1.4c-5.4 4.7-18.2-2.7-27.6-16.8-9.4-14.1-10.1-36.4-10.1-36.4 0 0 18.2 8.1 27.6 18.2 11.4 12.8 16.2 31 10.1 35zm31-44.4c-2.7-6.1 1.3-15.5 20.1-19.5 14.2-3.4 33.7-1.4 33.7-1.4 0 0-14.1 16.2-23.6 20.9-13.4 6.7-28.2 6.1-30.2 0zm-3.4-0.7c-4.7 4.7-16.8-0.6-27.6-12.1-10.1-11.4-13.5-31.6-13.5-31.6 0 0 18.2 5.4 27 12.8 12.7 10.7 18.8 25.5 14.1 30.9zm7.4-51.8c-2-4.7 0-13.5 16.1-18.2 12.2-4 28.3-4 28.3-4 0 0-10.8 14.8-18.2 19.5-10.7 7.4-23.5 7.4-26.2 2.7zm-2.7-0.7c-3.4 4.7-14.8 1.4-24.2-8-9.5-8.8-14.2-25.6-14.2-25.6 0 0 15.5 2.7 24.3 8.7 11.4 8.1 18.1 20.2 14.1 24.9zm2-35.6c-1.3-4.7 1.4-12.2 16.2-14.8 10.1-2.7 24.9-1.4 24.9-1.4 0 0-10.8 12.1-18.2 16.2-9.4 4.7-20.9 4-22.9 0zm-2-0.7c-3.4 3.4-12.8 0-20.9-8.8-7.4-8.7-10.1-23.5-10.1-23.5 0 0 13.5 3.4 20.2 9.4 9.5 7.4 14.2 18.9 10.8 22.9zm4-16.8c-5.3-2.7-4-13.5 2.7-24.9 6.8-11.5 22.2-18.9 22.2-18.9 0 0 0 15.5-4 24.9-4.7 12.8-15.5 21.6-20.9 18.9zm-165.5 139.9c-4.7-8-6.1-26.2-6.1-26.2 0 0 14.2 7.4 22.9 16.2 11.4 12.1 8.8 20.8 4 24.2-4 3.3-15.4-2.7-20.8-14.2zm48.4-0.6c10.8-1.4 26.3 3.3 26.3 3.3 0 0-12.8 12.8-26.3 16.9-12.8 3.3-24.2 1.3-24.9-4.1-1.3-6 11.5-14.1 24.9-16.1zm-35-42.4c-2.7-8.1-2-24.9-2-24.9 0 0 12.1 8.7 18.2 17.5 8.7 12.8 5.4 20.2 1.3 22.9-4.7 2.6-13.4-4.8-17.5-15.5zm44.5 5.4c9.4 0 22.2 6 22.2 6 0 0-12.8 10.1-24.9 12.1-12.1 1.4-22.2-2-22.2-7.4 0-5.4 12.1-10.7 24.9-10.7zm-14.2-39.1c-2-6.7 0-21.5 0-21.5 0 0 9.4 8.7 14.2 16.8 6.7 11.5 3.3 17.5-0.7 19.5-4.1 2.1-11.5-4.7-13.5-14.8zm37 8.1c8.1 1.3 18.9 7.4 18.9 7.4 0 0-12.1 8.1-22.2 8.1-10.8 0.7-18.9-3.4-18.2-7.4 0-4.7 10.8-8.8 21.5-8.1zm-16.1-26.9c-2-6.1-1.4-18.9-1.4-18.9 0 0 8.8 6.8 13.5 13.5 6.7 9.4 4 15.5 0.7 17.5-3.4 2-10.1-4-12.8-12.1zm33 4.7c7.4 0 17.5 4.7 17.5 4.7 0 0-10.1 7.4-19.6 8.8-8.7 1.3-16.1-1.4-16.1-5.4 0-4.1 8.7-8.8 18.2-8.1zm-13.5-26.3c3.4-8 12.1-17.5 12.1-17.5 0 0 4.1 12.8 2 22.9-2 10.8-8 18.2-12.1 16.9-4.7-0.7-6-12.2-2-22.3zm-150.7 126.6c-1.4-5.4 1.3-14.2 17.4-17.5 12.2-2 28.3-0.7 28.3-0.7 0 0-11.4 14.1-20.2 18.8-10.7 6.1-23.5 4.8-25.5-0.6zm-2.1-0.7c-4 4.7-14.8 0-23.5-10.8-8.8-10.7-11.5-28.2-11.5-28.2 0 0 14.8 4.7 22.9 11.4 10.8 9.4 16.2 23.6 12.1 27.6zm18.2-39c-2-4.7-0.7-13.5 13.5-18.2 10.7-4 25.5-4.7 25.5-4.7 0 0-8.7 14.8-16.1 19.5-9.4 6.7-20.9 7.4-22.9 3.4zm-2.7-0.7c-2.7 4.7-12.8 1.3-22.2-6.7-8.7-8.1-13.5-24.3-13.5-24.3 0 0 14.2 2.1 22.3 7.4 10 7.4 16.8 18.9 13.4 23.6zm0-42.4c-2-4-1.3-11.5 10.8-16.8 8.1-4.1 20.8-6.1 20.8-6.1 0 0-6.7 12.8-12.1 18.2-7.4 6.7-16.8 8.1-19.5 4.7zm-2-0.7c-2 4.1-10.8 2.7-19.5-4-8.1-6.1-13.5-19.5-13.5-19.5 0 0 12.1 1.3 19.5 4.7 9.5 5.4 16.2 14.8 13.5 18.8zm-2-28.9c-2-3.4-0.7-10.1 10.1-14.2 8-2.6 18.8-3.3 18.8-3.3 0 0-6.7 10.7-11.4 14.8-7.4 5.4-16.2 6-17.5 2.7zm-2-0.7c-2.7 3.4-10.1 1.4-16.9-4.7-6.7-6.1-10.7-18.2-10.7-18.2 0 0 10.7 1.4 16.8 5.4 8.1 5.4 12.8 14.1 10.8 17.5zm1.3-13.5c-4-2-4.7-10.7-0.7-20.8 4.1-10.1 14.8-17.5 14.8-17.5 0 0 2.1 12.8 0 20.8-2.7 10.8-10.1 18.9-14.1 17.5zm-78.7 117.8c-8.1-2-16.2-12.8-6.1-35 6.7-16.1 22.2-33.6 22.2-33.6 0 0 6.7 25.5 5.4 39-2 18.2-14.1 32.3-21.5 29.6zm-2.7 2.7c1.3 8.1-12.8 16.8-32.3 18.2-19.6 1.3-43.8-9.4-43.8-9.4 0 0 18.2-14.2 33.7-17.5 19.5-4.7 40.3 0 42.4 8.7zm-31.7-54.5c-7.4-1.3-16.1-10.1-10.1-31.6 4.1-15.5 15.5-33.7 15.5-33.7 0 0 9.4 22.9 10.1 35 0 16.8-8.7 31.6-15.5 30.3zm-2.7 2c2.7 7.4-8.7 16.8-26.2 20.9-17.5 4-40.4-3.4-40.4-3.4 0 0 14.1-14.8 27.6-20.2 16.8-6 36.4-4 39 2.7zm-50.4-35c-6.8-0.7-14.2-7.4-11.5-26.2 2.7-13.5 10.8-29.6 10.8-29.6 0 0 10.1 18.1 11.4 28.9 1.4 14.1-4.7 26.9-10.7 26.9zm-2.1 2c2.7 6.1-6.7 15.5-20.8 20.2-14.8 4.7-34.3 0-34.3 0 0 0 10.7-14.1 21.5-19.5 14.1-6.7 30.3-6.7 33.6-0.7zm-37-21.5c-5.3-0.7-11.4-7.4-7.4-23.5 2.7-11.5 11.5-24.9 11.5-24.9 0 0 7.4 16.8 7.4 26.2 0.6 12.1-6.1 22.9-11.5 22.2zm-2 2c2 5.4-6.7 12.8-19.5 16.2-13.5 2.7-30.3-2.7-30.3-2.7 0 0 10.8-11.5 20.9-14.8 12.8-5.4 26.9-4.1 28.9 1.3zm-14.8-12.8c-5.4 3.4-16.8-3.3-25.6-16.1-8-12.8-8.7-32.3-8.7-32.3 0 0 16.8 8.1 24.9 17.5 10.8 11.4 14.8 27.6 9.4 30.9zm8.8 185.8c-9.5 0-27-6.1-27-6.1 0 0 13.5-9.4 24.9-13.4 15.5-5.4 22.9 0.6 23.6 6 1.3 6.1-9.4 12.8-21.5 13.5zm20.1-44.4c3.4-10.1 13.5-22.2 13.5-22.2 0 0 6.7 17.5 4.7 30.2-2.7 13.5-9.4 22.9-14.8 21.6-5.4-2-8.1-16.8-3.4-29.6zm-53.8 13.4c-8.7-1.3-23.5-8.7-23.5-8.7 0 0 13.4-7.4 24.2-9.4 14.8-2.7 20.2 4 20.8 9.4 0.7 4.7-10 10.1-21.5 8.7zm23.6-37.7c4.7-8.7 15.4-17.5 15.4-17.5 0 0 4.1 16.2 0 27.6-3.3 12.1-10.7 19.6-15.4 16.9-5.4-2.1-5.4-15.5 0-27zm-41.1-4c-6.7-1.3-18.8-9.4-18.8-9.4 0 0 11.4-4.7 20.8-5.4 13.5-1.3 17.5 4.7 17.5 8.7 0 4.8-9.4 8.1-19.5 6.1zm23.6-30.3c4.7-6.7 14.8-13.4 14.8-13.4 0 0 2 14.1-2 23.5-4.1 9.4-11.5 15.5-14.9 12.8-4-2-3.3-13.5 2.1-22.9zm-31 3.4c-6.7-0.7-17.5-6.7-17.5-6.7 0 0 9.4-5.4 17.5-6.8 11.4-2 15.5 2.7 16.2 6.8 0 4-8.1 7.4-16.2 6.7zm18.2-28.3c2.7-6.7 11.4-13.4 11.4-13.4 0 0 2.7 12.1 0 20.8-2.7 8.8-8.7 14.8-12.1 12.8-3.4-1.3-4-11.4 0.7-20.2zm-29.6 0.7c-6.1-6.1-10.8-17.5-10.8-17.5 0 0 13.5 1.3 21.5 7.4 8.8 6.7 12.8 14.8 10.1 18.8-2.7 3.4-13.4-0.6-20.8-8.7zm-105.7 55.2c-6.1-7.4-11.4-24.9-11.4-24.9 0 0 15.4 4.7 25.5 11.4 14.2 9.4 13.5 18.2 9.5 22.9-3.4 4-15.5 0-23.6-9.4zm47.8-11.5c10.1-3.3 25.6-2 25.6-2 0 0-9.5 15.5-21.6 21.6-12.1 6.7-23.5 6.7-25.5 1.3-2.1-5.4 8-16.2 21.5-20.9zm-43.8-34.3c-4-7.4-6.7-23.5-6.7-23.5 0 0 13.5 6 21.5 13.4 11.5 10.1 9.5 18.9 5.4 22.2-3.3 3.4-14.1-2-20.2-12.1zm44.5-4c9.4-1.4 23.5 2 23.5 2 0 0-10.8 12.8-22.2 16.8-11.4 4.1-21.5 2.7-22.9-2.7-1.3-4.7 9.4-13.4 21.6-16.1zm-21.6-35c-2.7-6.1-4-20.9-4-20.9 0 0 10.8 6.7 17.5 13.5 8.7 10.1 6 16.8 2.7 19.5-3.4 2.7-11.5-2.7-16.2-12.1zm38.4 0.6c8.1-0.6 19.5 3.4 19.5 3.4 0 0-10.1 10.1-20.2 12.1-10.1 2.7-18.8 1.4-19.5-3.3 0-4.7 9.4-10.8 20.2-12.2zm-21.5-22.8c-3.4-6.1-5.4-18.2-5.4-18.2 0 0 10.1 4.7 16.1 10.1 8.1 8.1 7.4 14.1 4.1 16.8-2.7 2.7-10.8-1.3-14.8-8.7zm33.6-2.7c6.7-1.4 17.5 0.6 17.5 0.6 0 0-8.1 10.1-16.8 12.8-8.8 3.4-16.9 2.1-17.5-1.3-0.7-4 7.4-10.8 16.8-12.1zm-18.8-22.9c1.3-8.1 8-19.5 8-19.5 0 0 6.8 11.4 6.8 22.2 0 10.8-4.1 18.8-8.8 18.8-4 0-8.1-10.7-6-21.5z"/>
		</g>
	</g>
	<text id="" style="transform: matrix(1,0,0,1,640,449.28)" >
	</text>
	<text id="" style="transform: matrix(1,0,0,1,639,399.08)" >
	</text>
</svg>